<?xml version="1.0" encoding="UTF-8" standalone="no"?>
<svg width="960px" height="640px" viewBox="0 0 960 640" version="1.1" xmlns="http://www.w3.org/2000/svg" xmlns:xlink="http://www.w3.org/1999/xlink" xmlns:sketch="http://www.bohemiancoding.com/sketch/ns">
    <title>glasses</title>
    <description>Created with Sketch (http://www.bohemiancoding.com/sketch)</description>
    <defs></defs>
    <g id="Page-1" stroke="none" stroke-width="1" fill="none" fill-rule="evenodd" sketch:type="MSPage">
        <path d="M29,158 L300,348 L320,348 L384,328 L658,229 L696,213 L710,219 L710,249 L775,213 L775,174 L868,117 L444.996094,50 L444.996094,130 L420,149 L400,139 L400,9 L427,0 L460,0 L928,69 L950,79 L959,87 L960,117 L953,130 L953,259 L953,274 L940,296 L940,320 L929,339 L820,409 L800,399 L800,368 L780,376 L780,348 L780,302 L722,328 L722,368 L705,376 L705,436 L705,456 L674,465 L674,502 L647,517 L647,534 L583,572 L464,626 L439,640 L427,622 L410,626 L386,609 L386,599 L360,609 L340,589 L340,449 L320,459 L305.468859,458.590495 L39,249 L39,289 L20,302 L0,289 L0,169 L29,158 Z M402,381.997477 L402,573.999806 C402,573.999806 417.229739,566.486794 424.217687,565.003603 C429.787562,563.821397 439.673469,573.999806 439.673469,573.999806 L439.673469,590 L640.598639,491.002705 L640.598639,443.998229 L674.408163,429 L674.408163,364.001165 L686,359.001104 L686,268 L402,381.997477 Z M800,224 L800,349 L816.95848,339 L816.95848,369 L827.927179,359.996094 L827.927179,374.996094 L920.375773,314 L920.375771,284 C922.025544,280.940377 930.009597,269 930.009597,269 C930.571702,269 930.009597,249 930.009597,249 L930.009598,149 L920.375771,139 L800,224 Z" id="Path-1" fill="#000000" sketch:type="MSShapeGroup"></path>
    </g>
</svg>